<svg width="1200" height="600" viewBox="0 0 1200 600" xmlns="http://www.w3.org/2000/svg">
  <path fill="none" stroke="#000" stroke-width="1" d="M200,250 C250,230 300,240 350,245 C400,250 450,260 500,255 C550,250 600,240 650,245 C700,250 750,260 800,255 C850,250 900,240 950,245 M300,300 C350,290 400,295 450,300 C500,305 550,310 600,305 C650,300 700,290 750,295 M400,350 C450,340 500,345 550,350 C600,355 650,360 700,355 M250,200 C300,190 350,195 400,200 C450,205 500,210 550,205 C600,200 650,190 700,195 C750,200 800,210 850,205"/>
</svg> 